<mxfile host="app.diagrams.net" agent="Mozilla/5.0 (Windows NT 10.0; Win64; x64) AppleWebKit/537.36 (KHTML, like Gecko) Chrome/137.0.0.0 Safari/537.36" version="27.1.4">
  <diagram name="페이지-1" id="ctIKnXEeR2svyLLJ3DpG">
    <mxGraphModel dx="903" dy="1280" grid="1" gridSize="10" guides="1" tooltips="1" connect="1" arrows="1" fold="1" page="1" pageScale="1" pageWidth="827" pageHeight="1169" math="0" shadow="0">
      <root>
        <mxCell id="0" />
        <mxCell id="1" parent="0" />
        <mxCell id="P0IalFrBZh6FPfLn765m-89" value="" style="rounded=0;whiteSpace=wrap;html=1;strokeColor=none;" vertex="1" parent="1">
          <mxGeometry width="640" height="950" as="geometry" />
        </mxCell>
        <mxCell id="P0IalFrBZh6FPfLn765m-67" style="edgeStyle=orthogonalEdgeStyle;rounded=0;orthogonalLoop=1;jettySize=auto;html=1;exitX=0.5;exitY=1;exitDx=0;exitDy=0;" edge="1" parent="1" source="P0IalFrBZh6FPfLn765m-4" target="P0IalFrBZh6FPfLn765m-66">
          <mxGeometry relative="1" as="geometry" />
        </mxCell>
        <mxCell id="P0IalFrBZh6FPfLn765m-4" value="v, e = 정점, 간선 수&lt;div&gt;low = 복귀 최소 정점&lt;/div&gt;&lt;div&gt;num = 방문 번호&lt;/div&gt;&lt;div&gt;visit = 방문 여부&lt;/div&gt;&lt;div&gt;scc = scc 컴포넌트&lt;/div&gt;&lt;div&gt;count = dfs 깊이&lt;/div&gt;&lt;div&gt;stack = dfs 관리&lt;/div&gt;" style="shape=hexagon;perimeter=hexagonPerimeter2;whiteSpace=wrap;html=1;fixedSize=1;" vertex="1" parent="1">
          <mxGeometry x="45" y="80" width="150" height="110" as="geometry" />
        </mxCell>
        <mxCell id="P0IalFrBZh6FPfLn765m-7" style="edgeStyle=orthogonalEdgeStyle;rounded=0;orthogonalLoop=1;jettySize=auto;html=1;exitX=0.5;exitY=1;exitDx=0;exitDy=0;" edge="1" parent="1" source="P0IalFrBZh6FPfLn765m-5" target="P0IalFrBZh6FPfLn765m-4">
          <mxGeometry relative="1" as="geometry" />
        </mxCell>
        <mxCell id="P0IalFrBZh6FPfLn765m-5" value="start" style="rounded=1;whiteSpace=wrap;html=1;arcSize=50;" vertex="1" parent="1">
          <mxGeometry x="85" y="20" width="70" height="30" as="geometry" />
        </mxCell>
        <mxCell id="P0IalFrBZh6FPfLn765m-12" style="edgeStyle=orthogonalEdgeStyle;rounded=0;orthogonalLoop=1;jettySize=auto;html=1;exitX=0.5;exitY=1;exitDx=0;exitDy=0;" edge="1" parent="1" source="P0IalFrBZh6FPfLn765m-9" target="P0IalFrBZh6FPfLn765m-10">
          <mxGeometry relative="1" as="geometry" />
        </mxCell>
        <mxCell id="P0IalFrBZh6FPfLn765m-9" value="dfs(now)" style="rounded=1;whiteSpace=wrap;html=1;arcSize=50;" vertex="1" parent="1">
          <mxGeometry x="295" y="20" width="70" height="30" as="geometry" />
        </mxCell>
        <mxCell id="P0IalFrBZh6FPfLn765m-20" style="edgeStyle=orthogonalEdgeStyle;rounded=0;orthogonalLoop=1;jettySize=auto;html=1;exitX=0.5;exitY=1;exitDx=0;exitDy=0;" edge="1" parent="1" source="P0IalFrBZh6FPfLn765m-10" target="P0IalFrBZh6FPfLn765m-19">
          <mxGeometry relative="1" as="geometry" />
        </mxCell>
        <mxCell id="P0IalFrBZh6FPfLn765m-10" value="count += 1&lt;div&gt;low[now] = count&lt;/div&gt;&lt;div&gt;num[now] = count&lt;/div&gt;&lt;div&gt;&lt;div&gt;visit[now] = 1&lt;/div&gt;stack.append(now)&lt;/div&gt;" style="rounded=0;whiteSpace=wrap;html=1;" vertex="1" parent="1">
          <mxGeometry x="270" y="70" width="120" height="80" as="geometry" />
        </mxCell>
        <mxCell id="P0IalFrBZh6FPfLn765m-84" style="edgeStyle=orthogonalEdgeStyle;rounded=0;orthogonalLoop=1;jettySize=auto;html=1;exitX=0.25;exitY=1;exitDx=0;exitDy=0;" edge="1" parent="1" source="P0IalFrBZh6FPfLn765m-18" target="P0IalFrBZh6FPfLn765m-86">
          <mxGeometry relative="1" as="geometry">
            <mxPoint x="356.25" y="900" as="targetPoint" />
            <Array as="points">
              <mxPoint x="330" y="860" />
            </Array>
          </mxGeometry>
        </mxCell>
        <mxCell id="P0IalFrBZh6FPfLn765m-18" value="for next in edge[now]" style="swimlane;whiteSpace=wrap;html=1;align=left;" vertex="1" parent="1">
          <mxGeometry x="270" y="170" width="345" height="690" as="geometry">
            <mxRectangle x="215" y="180" width="150" height="30" as="alternateBounds" />
          </mxGeometry>
        </mxCell>
        <mxCell id="P0IalFrBZh6FPfLn765m-24" style="edgeStyle=orthogonalEdgeStyle;rounded=0;orthogonalLoop=1;jettySize=auto;html=1;exitX=0.5;exitY=1;exitDx=0;exitDy=0;" edge="1" parent="P0IalFrBZh6FPfLn765m-18" source="P0IalFrBZh6FPfLn765m-19" target="P0IalFrBZh6FPfLn765m-21">
          <mxGeometry relative="1" as="geometry" />
        </mxCell>
        <mxCell id="P0IalFrBZh6FPfLn765m-36" value="Y" style="edgeLabel;html=1;align=center;verticalAlign=middle;resizable=0;points=[];" vertex="1" connectable="0" parent="P0IalFrBZh6FPfLn765m-24">
          <mxGeometry x="-0.2798" y="1" relative="1" as="geometry">
            <mxPoint x="-18" y="3" as="offset" />
          </mxGeometry>
        </mxCell>
        <mxCell id="P0IalFrBZh6FPfLn765m-26" value="" style="edgeStyle=orthogonalEdgeStyle;rounded=0;orthogonalLoop=1;jettySize=auto;html=1;" edge="1" parent="P0IalFrBZh6FPfLn765m-18" source="P0IalFrBZh6FPfLn765m-19" target="P0IalFrBZh6FPfLn765m-25">
          <mxGeometry relative="1" as="geometry" />
        </mxCell>
        <mxCell id="P0IalFrBZh6FPfLn765m-37" value="N" style="edgeLabel;html=1;align=center;verticalAlign=middle;resizable=0;points=[];" vertex="1" connectable="0" parent="P0IalFrBZh6FPfLn765m-26">
          <mxGeometry x="-0.2388" y="-1" relative="1" as="geometry">
            <mxPoint x="5" y="-11" as="offset" />
          </mxGeometry>
        </mxCell>
        <mxCell id="P0IalFrBZh6FPfLn765m-19" value="num[next] == 0" style="rhombus;whiteSpace=wrap;html=1;" vertex="1" parent="P0IalFrBZh6FPfLn765m-18">
          <mxGeometry x="25" y="50" width="105" height="40" as="geometry" />
        </mxCell>
        <mxCell id="P0IalFrBZh6FPfLn765m-28" value="" style="edgeStyle=orthogonalEdgeStyle;rounded=0;orthogonalLoop=1;jettySize=auto;html=1;" edge="1" parent="P0IalFrBZh6FPfLn765m-18" source="P0IalFrBZh6FPfLn765m-21" target="P0IalFrBZh6FPfLn765m-27">
          <mxGeometry relative="1" as="geometry" />
        </mxCell>
        <mxCell id="P0IalFrBZh6FPfLn765m-21" value="dfs(next)" style="shape=process;whiteSpace=wrap;html=1;backgroundOutline=1;" vertex="1" parent="P0IalFrBZh6FPfLn765m-18">
          <mxGeometry x="26.25" y="110" width="102.5" height="35" as="geometry" />
        </mxCell>
        <mxCell id="P0IalFrBZh6FPfLn765m-30" value="" style="edgeStyle=orthogonalEdgeStyle;rounded=0;orthogonalLoop=1;jettySize=auto;html=1;" edge="1" parent="P0IalFrBZh6FPfLn765m-18" source="P0IalFrBZh6FPfLn765m-25" target="P0IalFrBZh6FPfLn765m-29">
          <mxGeometry relative="1" as="geometry" />
        </mxCell>
        <mxCell id="P0IalFrBZh6FPfLn765m-38" value="Y" style="edgeLabel;html=1;align=center;verticalAlign=middle;resizable=0;points=[];" vertex="1" connectable="0" parent="P0IalFrBZh6FPfLn765m-30">
          <mxGeometry x="-0.1845" y="1" relative="1" as="geometry">
            <mxPoint x="-11" as="offset" />
          </mxGeometry>
        </mxCell>
        <mxCell id="P0IalFrBZh6FPfLn765m-25" value="visit[next] == 1" style="rhombus;whiteSpace=wrap;html=1;" vertex="1" parent="P0IalFrBZh6FPfLn765m-18">
          <mxGeometry x="180" y="50" width="105" height="40" as="geometry" />
        </mxCell>
        <mxCell id="P0IalFrBZh6FPfLn765m-32" value="" style="edgeStyle=orthogonalEdgeStyle;rounded=0;orthogonalLoop=1;jettySize=auto;html=1;endArrow=none;startFill=0;" edge="1" parent="P0IalFrBZh6FPfLn765m-18" source="P0IalFrBZh6FPfLn765m-27" target="P0IalFrBZh6FPfLn765m-31">
          <mxGeometry relative="1" as="geometry" />
        </mxCell>
        <mxCell id="P0IalFrBZh6FPfLn765m-27" value="low[now]&lt;div&gt;= min(low[now], low[next])&lt;/div&gt;" style="whiteSpace=wrap;html=1;" vertex="1" parent="P0IalFrBZh6FPfLn765m-18">
          <mxGeometry x="5" y="170" width="145" height="60" as="geometry" />
        </mxCell>
        <mxCell id="P0IalFrBZh6FPfLn765m-29" value="low[now]&lt;div&gt;= min(low[now], num[next])&lt;/div&gt;" style="whiteSpace=wrap;html=1;" vertex="1" parent="P0IalFrBZh6FPfLn765m-18">
          <mxGeometry x="155" y="170" width="155" height="60" as="geometry" />
        </mxCell>
        <mxCell id="P0IalFrBZh6FPfLn765m-43" style="edgeStyle=orthogonalEdgeStyle;rounded=0;orthogonalLoop=1;jettySize=auto;html=1;entryX=0.5;entryY=0;entryDx=0;entryDy=0;" edge="1" parent="P0IalFrBZh6FPfLn765m-18" source="P0IalFrBZh6FPfLn765m-31" target="P0IalFrBZh6FPfLn765m-42">
          <mxGeometry relative="1" as="geometry">
            <mxPoint x="125" y="280" as="targetPoint" />
            <Array as="points">
              <mxPoint x="78" y="280" />
              <mxPoint x="103" y="280" />
            </Array>
          </mxGeometry>
        </mxCell>
        <mxCell id="P0IalFrBZh6FPfLn765m-31" value="" style="shape=waypoint;sketch=0;size=6;pointerEvents=1;points=[];fillColor=default;resizable=0;rotatable=0;perimeter=centerPerimeter;snapToPoint=1;" vertex="1" parent="P0IalFrBZh6FPfLn765m-18">
          <mxGeometry x="67.5" y="260" width="20" height="20" as="geometry" />
        </mxCell>
        <mxCell id="P0IalFrBZh6FPfLn765m-33" style="edgeStyle=orthogonalEdgeStyle;rounded=0;orthogonalLoop=1;jettySize=auto;html=1;exitX=0.5;exitY=1;exitDx=0;exitDy=0;entryX=0.696;entryY=0.536;entryDx=0;entryDy=0;entryPerimeter=0;endArrow=none;startFill=0;" edge="1" parent="P0IalFrBZh6FPfLn765m-18" source="P0IalFrBZh6FPfLn765m-29" target="P0IalFrBZh6FPfLn765m-31">
          <mxGeometry relative="1" as="geometry">
            <Array as="points">
              <mxPoint x="233" y="250" />
              <mxPoint x="78" y="250" />
            </Array>
          </mxGeometry>
        </mxCell>
        <mxCell id="P0IalFrBZh6FPfLn765m-35" style="edgeStyle=orthogonalEdgeStyle;rounded=0;orthogonalLoop=1;jettySize=auto;html=1;exitX=1;exitY=0.5;exitDx=0;exitDy=0;entryX=1.039;entryY=0.621;entryDx=0;entryDy=0;entryPerimeter=0;endArrow=none;startFill=0;" edge="1" parent="P0IalFrBZh6FPfLn765m-18" source="P0IalFrBZh6FPfLn765m-25" target="P0IalFrBZh6FPfLn765m-31">
          <mxGeometry relative="1" as="geometry">
            <Array as="points">
              <mxPoint x="325" y="70" />
              <mxPoint x="325" y="250" />
              <mxPoint x="78" y="250" />
            </Array>
          </mxGeometry>
        </mxCell>
        <mxCell id="P0IalFrBZh6FPfLn765m-39" value="N" style="edgeLabel;html=1;align=center;verticalAlign=middle;resizable=0;points=[];" vertex="1" connectable="0" parent="P0IalFrBZh6FPfLn765m-35">
          <mxGeometry x="-0.9351" y="-1" relative="1" as="geometry">
            <mxPoint y="-11" as="offset" />
          </mxGeometry>
        </mxCell>
        <mxCell id="P0IalFrBZh6FPfLn765m-45" value="" style="edgeStyle=orthogonalEdgeStyle;rounded=0;orthogonalLoop=1;jettySize=auto;html=1;" edge="1" parent="P0IalFrBZh6FPfLn765m-18" source="P0IalFrBZh6FPfLn765m-42" target="P0IalFrBZh6FPfLn765m-44">
          <mxGeometry relative="1" as="geometry" />
        </mxCell>
        <mxCell id="P0IalFrBZh6FPfLn765m-46" value="Y" style="edgeLabel;html=1;align=center;verticalAlign=middle;resizable=0;points=[];" vertex="1" connectable="0" parent="P0IalFrBZh6FPfLn765m-45">
          <mxGeometry x="-0.2727" relative="1" as="geometry">
            <mxPoint x="-8" y="3" as="offset" />
          </mxGeometry>
        </mxCell>
        <mxCell id="P0IalFrBZh6FPfLn765m-63" style="edgeStyle=orthogonalEdgeStyle;rounded=0;orthogonalLoop=1;jettySize=auto;html=1;exitX=1;exitY=0.5;exitDx=0;exitDy=0;" edge="1" parent="P0IalFrBZh6FPfLn765m-18" source="P0IalFrBZh6FPfLn765m-42">
          <mxGeometry relative="1" as="geometry">
            <mxPoint x="265" y="690" as="targetPoint" />
          </mxGeometry>
        </mxCell>
        <mxCell id="P0IalFrBZh6FPfLn765m-64" value="N" style="edgeLabel;html=1;align=center;verticalAlign=middle;resizable=0;points=[];" vertex="1" connectable="0" parent="P0IalFrBZh6FPfLn765m-63">
          <mxGeometry x="-0.832" y="-1" relative="1" as="geometry">
            <mxPoint x="8" y="-16" as="offset" />
          </mxGeometry>
        </mxCell>
        <mxCell id="P0IalFrBZh6FPfLn765m-42" value="low[now] == num[now]" style="rhombus;whiteSpace=wrap;html=1;" vertex="1" parent="P0IalFrBZh6FPfLn765m-18">
          <mxGeometry x="25" y="310" width="155" height="50" as="geometry" />
        </mxCell>
        <mxCell id="P0IalFrBZh6FPfLn765m-50" style="edgeStyle=orthogonalEdgeStyle;rounded=0;orthogonalLoop=1;jettySize=auto;html=1;exitX=0.5;exitY=1;exitDx=0;exitDy=0;" edge="1" parent="P0IalFrBZh6FPfLn765m-18" source="P0IalFrBZh6FPfLn765m-44" target="P0IalFrBZh6FPfLn765m-48">
          <mxGeometry relative="1" as="geometry" />
        </mxCell>
        <mxCell id="P0IalFrBZh6FPfLn765m-44" value="comp = []" style="shape=hexagon;perimeter=hexagonPerimeter2;whiteSpace=wrap;html=1;fixedSize=1;size=13.75;" vertex="1" parent="P0IalFrBZh6FPfLn765m-18">
          <mxGeometry x="61.25" y="380" width="82.5" height="30" as="geometry" />
        </mxCell>
        <mxCell id="P0IalFrBZh6FPfLn765m-47" value="while stack" style="swimlane;whiteSpace=wrap;html=1;align=left;" vertex="1" parent="P0IalFrBZh6FPfLn765m-18">
          <mxGeometry x="35" y="430" width="205" height="180" as="geometry" />
        </mxCell>
        <mxCell id="P0IalFrBZh6FPfLn765m-54" value="" style="edgeStyle=orthogonalEdgeStyle;rounded=0;orthogonalLoop=1;jettySize=auto;html=1;" edge="1" parent="P0IalFrBZh6FPfLn765m-47" source="P0IalFrBZh6FPfLn765m-48" target="P0IalFrBZh6FPfLn765m-53">
          <mxGeometry relative="1" as="geometry" />
        </mxCell>
        <mxCell id="P0IalFrBZh6FPfLn765m-48" value="c = stack.pop()&lt;div&gt;visit[c] = 0&lt;/div&gt;&lt;div&gt;comp.append(c)&lt;/div&gt;" style="rounded=0;whiteSpace=wrap;html=1;" vertex="1" parent="P0IalFrBZh6FPfLn765m-47">
          <mxGeometry x="10" y="40" width="157.5" height="60" as="geometry" />
        </mxCell>
        <mxCell id="P0IalFrBZh6FPfLn765m-87" style="edgeStyle=orthogonalEdgeStyle;rounded=0;orthogonalLoop=1;jettySize=auto;html=1;exitX=1;exitY=0.5;exitDx=0;exitDy=0;" edge="1" parent="P0IalFrBZh6FPfLn765m-47" source="P0IalFrBZh6FPfLn765m-53">
          <mxGeometry relative="1" as="geometry">
            <mxPoint x="165" y="180" as="targetPoint" />
          </mxGeometry>
        </mxCell>
        <mxCell id="P0IalFrBZh6FPfLn765m-88" value="N" style="edgeLabel;html=1;align=center;verticalAlign=middle;resizable=0;points=[];" vertex="1" connectable="0" parent="P0IalFrBZh6FPfLn765m-87">
          <mxGeometry x="-0.3181" relative="1" as="geometry">
            <mxPoint x="-11" y="-11" as="offset" />
          </mxGeometry>
        </mxCell>
        <mxCell id="P0IalFrBZh6FPfLn765m-53" value="now == c" style="rhombus;whiteSpace=wrap;html=1;rounded=0;" vertex="1" parent="P0IalFrBZh6FPfLn765m-47">
          <mxGeometry x="43.13" y="120" width="91.25" height="30" as="geometry" />
        </mxCell>
        <mxCell id="P0IalFrBZh6FPfLn765m-62" style="edgeStyle=orthogonalEdgeStyle;rounded=0;orthogonalLoop=1;jettySize=auto;html=1;exitX=0.5;exitY=1;exitDx=0;exitDy=0;" edge="1" parent="P0IalFrBZh6FPfLn765m-18" source="P0IalFrBZh6FPfLn765m-55">
          <mxGeometry relative="1" as="geometry">
            <mxPoint x="102.17647058823536" y="690" as="targetPoint" />
          </mxGeometry>
        </mxCell>
        <mxCell id="P0IalFrBZh6FPfLn765m-55" value="comp.sort()&lt;div&gt;scc.append(comp)&lt;/div&gt;" style="rounded=0;whiteSpace=wrap;html=1;" vertex="1" parent="P0IalFrBZh6FPfLn765m-18">
          <mxGeometry x="42.5" y="620" width="120" height="50" as="geometry" />
        </mxCell>
        <mxCell id="P0IalFrBZh6FPfLn765m-57" style="edgeStyle=orthogonalEdgeStyle;rounded=0;orthogonalLoop=1;jettySize=auto;html=1;exitX=0.5;exitY=1;exitDx=0;exitDy=0;" edge="1" parent="P0IalFrBZh6FPfLn765m-18" source="P0IalFrBZh6FPfLn765m-53" target="P0IalFrBZh6FPfLn765m-55">
          <mxGeometry relative="1" as="geometry" />
        </mxCell>
        <mxCell id="P0IalFrBZh6FPfLn765m-58" value="Y" style="edgeLabel;html=1;align=center;verticalAlign=middle;resizable=0;points=[];" vertex="1" connectable="0" parent="P0IalFrBZh6FPfLn765m-57">
          <mxGeometry x="-0.5687" y="1" relative="1" as="geometry">
            <mxPoint x="-10" y="-3" as="offset" />
          </mxGeometry>
        </mxCell>
        <mxCell id="P0IalFrBZh6FPfLn765m-78" style="edgeStyle=orthogonalEdgeStyle;rounded=0;orthogonalLoop=1;jettySize=auto;html=1;exitX=0.5;exitY=1;exitDx=0;exitDy=0;" edge="1" parent="1" source="P0IalFrBZh6FPfLn765m-65" target="P0IalFrBZh6FPfLn765m-75">
          <mxGeometry relative="1" as="geometry" />
        </mxCell>
        <mxCell id="P0IalFrBZh6FPfLn765m-65" value="for i in range(1, v + 1)" style="swimlane;whiteSpace=wrap;html=1;align=left;" vertex="1" parent="1">
          <mxGeometry x="20" y="210" width="200" height="210" as="geometry" />
        </mxCell>
        <mxCell id="P0IalFrBZh6FPfLn765m-70" value="" style="edgeStyle=orthogonalEdgeStyle;rounded=0;orthogonalLoop=1;jettySize=auto;html=1;endArrow=none;startFill=0;" edge="1" parent="P0IalFrBZh6FPfLn765m-65" source="P0IalFrBZh6FPfLn765m-8" target="P0IalFrBZh6FPfLn765m-69">
          <mxGeometry relative="1" as="geometry" />
        </mxCell>
        <mxCell id="P0IalFrBZh6FPfLn765m-8" value="dfs(i)" style="shape=process;whiteSpace=wrap;html=1;backgroundOutline=1;" vertex="1" parent="P0IalFrBZh6FPfLn765m-65">
          <mxGeometry x="40" y="100" width="120" height="40" as="geometry" />
        </mxCell>
        <mxCell id="P0IalFrBZh6FPfLn765m-68" style="edgeStyle=orthogonalEdgeStyle;rounded=0;orthogonalLoop=1;jettySize=auto;html=1;exitX=0.5;exitY=1;exitDx=0;exitDy=0;" edge="1" parent="P0IalFrBZh6FPfLn765m-65" source="P0IalFrBZh6FPfLn765m-66" target="P0IalFrBZh6FPfLn765m-8">
          <mxGeometry relative="1" as="geometry" />
        </mxCell>
        <mxCell id="P0IalFrBZh6FPfLn765m-73" value="Y" style="edgeLabel;html=1;align=center;verticalAlign=middle;resizable=0;points=[];" vertex="1" connectable="0" parent="P0IalFrBZh6FPfLn765m-68">
          <mxGeometry x="0.6133" y="1" relative="1" as="geometry">
            <mxPoint x="-11" y="-1" as="offset" />
          </mxGeometry>
        </mxCell>
        <mxCell id="P0IalFrBZh6FPfLn765m-66" value="num[i] == 0" style="rhombus;whiteSpace=wrap;html=1;" vertex="1" parent="P0IalFrBZh6FPfLn765m-65">
          <mxGeometry x="47.5" y="40" width="105" height="40" as="geometry" />
        </mxCell>
        <mxCell id="P0IalFrBZh6FPfLn765m-71" style="edgeStyle=orthogonalEdgeStyle;rounded=0;orthogonalLoop=1;jettySize=auto;html=1;" edge="1" parent="P0IalFrBZh6FPfLn765m-65" source="P0IalFrBZh6FPfLn765m-69">
          <mxGeometry relative="1" as="geometry">
            <mxPoint x="100" y="210" as="targetPoint" />
          </mxGeometry>
        </mxCell>
        <mxCell id="P0IalFrBZh6FPfLn765m-69" value="" style="shape=waypoint;sketch=0;size=6;pointerEvents=1;points=[];fillColor=default;resizable=0;rotatable=0;perimeter=centerPerimeter;snapToPoint=1;" vertex="1" parent="P0IalFrBZh6FPfLn765m-65">
          <mxGeometry x="90" y="170" width="20" height="20" as="geometry" />
        </mxCell>
        <mxCell id="P0IalFrBZh6FPfLn765m-72" style="edgeStyle=orthogonalEdgeStyle;rounded=0;orthogonalLoop=1;jettySize=auto;html=1;exitX=1;exitY=0.5;exitDx=0;exitDy=0;entryX=0.93;entryY=0.5;entryDx=0;entryDy=0;entryPerimeter=0;endArrow=none;startFill=0;" edge="1" parent="P0IalFrBZh6FPfLn765m-65" source="P0IalFrBZh6FPfLn765m-66" target="P0IalFrBZh6FPfLn765m-69">
          <mxGeometry relative="1" as="geometry">
            <Array as="points">
              <mxPoint x="173" y="60" />
              <mxPoint x="173" y="180" />
            </Array>
          </mxGeometry>
        </mxCell>
        <mxCell id="P0IalFrBZh6FPfLn765m-74" value="N" style="edgeLabel;html=1;align=center;verticalAlign=middle;resizable=0;points=[];" vertex="1" connectable="0" parent="P0IalFrBZh6FPfLn765m-72">
          <mxGeometry x="-0.9241" y="1" relative="1" as="geometry">
            <mxPoint y="-9" as="offset" />
          </mxGeometry>
        </mxCell>
        <mxCell id="P0IalFrBZh6FPfLn765m-83" style="edgeStyle=orthogonalEdgeStyle;rounded=0;orthogonalLoop=1;jettySize=auto;html=1;exitX=0.5;exitY=1;exitDx=0;exitDy=0;" edge="1" parent="1" source="P0IalFrBZh6FPfLn765m-75" target="P0IalFrBZh6FPfLn765m-81">
          <mxGeometry relative="1" as="geometry" />
        </mxCell>
        <mxCell id="P0IalFrBZh6FPfLn765m-75" value="scc.sort()" style="rounded=0;whiteSpace=wrap;html=1;" vertex="1" parent="1">
          <mxGeometry x="60" y="450" width="120" height="40" as="geometry" />
        </mxCell>
        <mxCell id="P0IalFrBZh6FPfLn765m-81" value="end" style="rounded=1;whiteSpace=wrap;html=1;arcSize=50;" vertex="1" parent="1">
          <mxGeometry x="85" y="510" width="70" height="30" as="geometry" />
        </mxCell>
        <mxCell id="P0IalFrBZh6FPfLn765m-86" value="return" style="rounded=1;whiteSpace=wrap;html=1;arcSize=50;" vertex="1" parent="1">
          <mxGeometry x="295" y="900" width="70" height="30" as="geometry" />
        </mxCell>
      </root>
    </mxGraphModel>
  </diagram>
</mxfile>
